<mxfile host="app.diagrams.net" modified="2023-11-27T06:21:51.374Z" agent="Mozilla/5.0 (Windows NT 10.0; Win64; x64) AppleWebKit/537.36 (KHTML, like Gecko) Chrome/119.0.0.0 Safari/537.36" etag="a3PuIRn0PO8zrE1nEJ3B" version="22.1.4" type="device">
  <diagram id="C5RBs43oDa-KdzZeNtuy" name="Page-1">
    <mxGraphModel dx="1509" dy="825" grid="1" gridSize="10" guides="1" tooltips="1" connect="1" arrows="1" fold="1" page="1" pageScale="1" pageWidth="827" pageHeight="1169" math="0" shadow="0">
      <root>
        <mxCell id="WIyWlLk6GJQsqaUBKTNV-0" />
        <mxCell id="WIyWlLk6GJQsqaUBKTNV-1" parent="WIyWlLk6GJQsqaUBKTNV-0" />
        <mxCell id="wZyBaui_SmMNDyyp1E5k-0" value="Flowchart: main()" style="text;html=1;strokeColor=none;fillColor=none;align=center;verticalAlign=middle;whiteSpace=wrap;rounded=0;fontSize=17;fontStyle=1" vertex="1" parent="WIyWlLk6GJQsqaUBKTNV-1">
          <mxGeometry x="130" y="30" width="160" height="30" as="geometry" />
        </mxCell>
        <mxCell id="wZyBaui_SmMNDyyp1E5k-3" value="" style="edgeStyle=orthogonalEdgeStyle;rounded=0;orthogonalLoop=1;jettySize=auto;html=1;" edge="1" parent="WIyWlLk6GJQsqaUBKTNV-1" source="wZyBaui_SmMNDyyp1E5k-1" target="wZyBaui_SmMNDyyp1E5k-2">
          <mxGeometry relative="1" as="geometry" />
        </mxCell>
        <mxCell id="wZyBaui_SmMNDyyp1E5k-1" value="Start" style="ellipse;whiteSpace=wrap;html=1;" vertex="1" parent="WIyWlLk6GJQsqaUBKTNV-1">
          <mxGeometry x="150" y="110" width="120" height="80" as="geometry" />
        </mxCell>
        <mxCell id="wZyBaui_SmMNDyyp1E5k-5" value="" style="edgeStyle=orthogonalEdgeStyle;rounded=0;orthogonalLoop=1;jettySize=auto;html=1;" edge="1" parent="WIyWlLk6GJQsqaUBKTNV-1" source="wZyBaui_SmMNDyyp1E5k-2" target="wZyBaui_SmMNDyyp1E5k-4">
          <mxGeometry relative="1" as="geometry" />
        </mxCell>
        <mxCell id="wZyBaui_SmMNDyyp1E5k-2" value="int n" style="shape=hexagon;perimeter=hexagonPerimeter2;whiteSpace=wrap;html=1;fixedSize=1;" vertex="1" parent="WIyWlLk6GJQsqaUBKTNV-1">
          <mxGeometry x="150" y="230" width="120" height="30" as="geometry" />
        </mxCell>
        <mxCell id="wZyBaui_SmMNDyyp1E5k-7" value="" style="edgeStyle=orthogonalEdgeStyle;rounded=0;orthogonalLoop=1;jettySize=auto;html=1;" edge="1" parent="WIyWlLk6GJQsqaUBKTNV-1" source="wZyBaui_SmMNDyyp1E5k-4" target="wZyBaui_SmMNDyyp1E5k-6">
          <mxGeometry relative="1" as="geometry" />
        </mxCell>
        <mxCell id="wZyBaui_SmMNDyyp1E5k-4" value="input n" style="shape=parallelogram;perimeter=parallelogramPerimeter;whiteSpace=wrap;html=1;fixedSize=1;" vertex="1" parent="WIyWlLk6GJQsqaUBKTNV-1">
          <mxGeometry x="150" y="300" width="120" height="60" as="geometry" />
        </mxCell>
        <mxCell id="wZyBaui_SmMNDyyp1E5k-11" value="" style="edgeStyle=orthogonalEdgeStyle;rounded=0;orthogonalLoop=1;jettySize=auto;html=1;" edge="1" parent="WIyWlLk6GJQsqaUBKTNV-1" source="wZyBaui_SmMNDyyp1E5k-6" target="wZyBaui_SmMNDyyp1E5k-10">
          <mxGeometry relative="1" as="geometry" />
        </mxCell>
        <mxCell id="wZyBaui_SmMNDyyp1E5k-6" value="int i = 1" style="rounded=0;whiteSpace=wrap;html=1;" vertex="1" parent="WIyWlLk6GJQsqaUBKTNV-1">
          <mxGeometry x="150" y="390" width="120" height="30" as="geometry" />
        </mxCell>
        <mxCell id="wZyBaui_SmMNDyyp1E5k-14" value="" style="edgeStyle=orthogonalEdgeStyle;rounded=0;orthogonalLoop=1;jettySize=auto;html=1;" edge="1" parent="WIyWlLk6GJQsqaUBKTNV-1" source="wZyBaui_SmMNDyyp1E5k-10" target="wZyBaui_SmMNDyyp1E5k-13">
          <mxGeometry relative="1" as="geometry" />
        </mxCell>
        <mxCell id="wZyBaui_SmMNDyyp1E5k-10" value="" style="ellipse;whiteSpace=wrap;html=1;aspect=fixed;" vertex="1" parent="WIyWlLk6GJQsqaUBKTNV-1">
          <mxGeometry x="195" y="440" width="30" height="30" as="geometry" />
        </mxCell>
        <mxCell id="wZyBaui_SmMNDyyp1E5k-16" value="" style="edgeStyle=orthogonalEdgeStyle;rounded=0;orthogonalLoop=1;jettySize=auto;html=1;" edge="1" parent="WIyWlLk6GJQsqaUBKTNV-1" source="wZyBaui_SmMNDyyp1E5k-13" target="wZyBaui_SmMNDyyp1E5k-15">
          <mxGeometry relative="1" as="geometry" />
        </mxCell>
        <mxCell id="wZyBaui_SmMNDyyp1E5k-27" value="Ya" style="edgeLabel;html=1;align=center;verticalAlign=middle;resizable=0;points=[];" vertex="1" connectable="0" parent="wZyBaui_SmMNDyyp1E5k-16">
          <mxGeometry x="-0.2314" relative="1" as="geometry">
            <mxPoint as="offset" />
          </mxGeometry>
        </mxCell>
        <mxCell id="wZyBaui_SmMNDyyp1E5k-26" style="edgeStyle=orthogonalEdgeStyle;rounded=0;orthogonalLoop=1;jettySize=auto;html=1;entryX=0;entryY=0.5;entryDx=0;entryDy=0;" edge="1" parent="WIyWlLk6GJQsqaUBKTNV-1" source="wZyBaui_SmMNDyyp1E5k-13" target="wZyBaui_SmMNDyyp1E5k-25">
          <mxGeometry relative="1" as="geometry">
            <Array as="points">
              <mxPoint x="110" y="545" />
              <mxPoint x="110" y="830" />
            </Array>
          </mxGeometry>
        </mxCell>
        <mxCell id="wZyBaui_SmMNDyyp1E5k-28" value="Tidak" style="edgeLabel;html=1;align=center;verticalAlign=middle;resizable=0;points=[];" vertex="1" connectable="0" parent="wZyBaui_SmMNDyyp1E5k-26">
          <mxGeometry x="-0.8445" y="-3" relative="1" as="geometry">
            <mxPoint as="offset" />
          </mxGeometry>
        </mxCell>
        <mxCell id="wZyBaui_SmMNDyyp1E5k-13" value="i &amp;lt;= n" style="rhombus;whiteSpace=wrap;html=1;" vertex="1" parent="WIyWlLk6GJQsqaUBKTNV-1">
          <mxGeometry x="170" y="505" width="80" height="80" as="geometry" />
        </mxCell>
        <mxCell id="wZyBaui_SmMNDyyp1E5k-23" value="" style="edgeStyle=orthogonalEdgeStyle;rounded=0;orthogonalLoop=1;jettySize=auto;html=1;" edge="1" parent="WIyWlLk6GJQsqaUBKTNV-1" source="wZyBaui_SmMNDyyp1E5k-15" target="wZyBaui_SmMNDyyp1E5k-22">
          <mxGeometry relative="1" as="geometry" />
        </mxCell>
        <mxCell id="wZyBaui_SmMNDyyp1E5k-15" value="fibonacciRecursive&lt;br&gt;(i) + &quot; &quot;" style="shape=process;whiteSpace=wrap;html=1;backgroundOutline=1;fillColor=#FF99CC;" vertex="1" parent="WIyWlLk6GJQsqaUBKTNV-1">
          <mxGeometry x="140" y="630" width="140" height="60" as="geometry" />
        </mxCell>
        <mxCell id="wZyBaui_SmMNDyyp1E5k-19" value="Flowchart: fibonacciRecursive(int n)" style="text;html=1;strokeColor=none;fillColor=none;align=center;verticalAlign=middle;whiteSpace=wrap;rounded=0;fontSize=17;fontStyle=1" vertex="1" parent="WIyWlLk6GJQsqaUBKTNV-1">
          <mxGeometry x="390" y="30" width="270" height="30" as="geometry" />
        </mxCell>
        <mxCell id="wZyBaui_SmMNDyyp1E5k-29" value="" style="edgeStyle=orthogonalEdgeStyle;rounded=0;orthogonalLoop=1;jettySize=auto;html=1;fillColor=#FF99CC;" edge="1" parent="WIyWlLk6GJQsqaUBKTNV-1" source="wZyBaui_SmMNDyyp1E5k-20" target="wZyBaui_SmMNDyyp1E5k-21">
          <mxGeometry relative="1" as="geometry" />
        </mxCell>
        <mxCell id="wZyBaui_SmMNDyyp1E5k-20" value="fibonacciRecursive&lt;br&gt;(int i)" style="ellipse;whiteSpace=wrap;html=1;fillColor=#FF99CC;" vertex="1" parent="WIyWlLk6GJQsqaUBKTNV-1">
          <mxGeometry x="465" y="110" width="120" height="80" as="geometry" />
        </mxCell>
        <mxCell id="wZyBaui_SmMNDyyp1E5k-31" value="" style="edgeStyle=orthogonalEdgeStyle;rounded=0;orthogonalLoop=1;jettySize=auto;html=1;fillColor=#FF99CC;" edge="1" parent="WIyWlLk6GJQsqaUBKTNV-1" source="wZyBaui_SmMNDyyp1E5k-21" target="wZyBaui_SmMNDyyp1E5k-30">
          <mxGeometry relative="1" as="geometry" />
        </mxCell>
        <mxCell id="wZyBaui_SmMNDyyp1E5k-32" value="Ya" style="edgeLabel;html=1;align=center;verticalAlign=middle;resizable=0;points=[];fillColor=#FF99CC;" vertex="1" connectable="0" parent="wZyBaui_SmMNDyyp1E5k-31">
          <mxGeometry x="0.0909" relative="1" as="geometry">
            <mxPoint as="offset" />
          </mxGeometry>
        </mxCell>
        <mxCell id="wZyBaui_SmMNDyyp1E5k-34" value="" style="edgeStyle=orthogonalEdgeStyle;rounded=0;orthogonalLoop=1;jettySize=auto;html=1;fillColor=#FF99CC;" edge="1" parent="WIyWlLk6GJQsqaUBKTNV-1" source="wZyBaui_SmMNDyyp1E5k-21" target="wZyBaui_SmMNDyyp1E5k-33">
          <mxGeometry relative="1" as="geometry" />
        </mxCell>
        <mxCell id="wZyBaui_SmMNDyyp1E5k-35" value="Tidak" style="edgeLabel;html=1;align=center;verticalAlign=middle;resizable=0;points=[];fillColor=#FF99CC;" vertex="1" connectable="0" parent="wZyBaui_SmMNDyyp1E5k-34">
          <mxGeometry x="-0.5515" y="2" relative="1" as="geometry">
            <mxPoint as="offset" />
          </mxGeometry>
        </mxCell>
        <mxCell id="wZyBaui_SmMNDyyp1E5k-21" value="n &amp;lt;= 1" style="rhombus;whiteSpace=wrap;html=1;fillColor=#FF99CC;" vertex="1" parent="WIyWlLk6GJQsqaUBKTNV-1">
          <mxGeometry x="485" y="240" width="80" height="80" as="geometry" />
        </mxCell>
        <mxCell id="wZyBaui_SmMNDyyp1E5k-24" style="edgeStyle=orthogonalEdgeStyle;rounded=0;orthogonalLoop=1;jettySize=auto;html=1;entryX=1;entryY=0.5;entryDx=0;entryDy=0;" edge="1" parent="WIyWlLk6GJQsqaUBKTNV-1" source="wZyBaui_SmMNDyyp1E5k-22" target="wZyBaui_SmMNDyyp1E5k-10">
          <mxGeometry relative="1" as="geometry">
            <Array as="points">
              <mxPoint x="300" y="735" />
              <mxPoint x="300" y="455" />
            </Array>
          </mxGeometry>
        </mxCell>
        <mxCell id="wZyBaui_SmMNDyyp1E5k-22" value="i++" style="rounded=0;whiteSpace=wrap;html=1;" vertex="1" parent="WIyWlLk6GJQsqaUBKTNV-1">
          <mxGeometry x="150" y="720" width="120" height="30" as="geometry" />
        </mxCell>
        <mxCell id="wZyBaui_SmMNDyyp1E5k-25" value="End" style="ellipse;whiteSpace=wrap;html=1;" vertex="1" parent="WIyWlLk6GJQsqaUBKTNV-1">
          <mxGeometry x="150" y="790" width="120" height="80" as="geometry" />
        </mxCell>
        <mxCell id="wZyBaui_SmMNDyyp1E5k-30" value="return n;" style="rounded=0;whiteSpace=wrap;html=1;fillColor=#FF99CC;" vertex="1" parent="WIyWlLk6GJQsqaUBKTNV-1">
          <mxGeometry x="620" y="265" width="120" height="30" as="geometry" />
        </mxCell>
        <mxCell id="wZyBaui_SmMNDyyp1E5k-36" style="edgeStyle=orthogonalEdgeStyle;rounded=0;orthogonalLoop=1;jettySize=auto;html=1;entryX=0.5;entryY=1;entryDx=0;entryDy=0;fillColor=#FF99CC;" edge="1" parent="WIyWlLk6GJQsqaUBKTNV-1" source="wZyBaui_SmMNDyyp1E5k-33" target="wZyBaui_SmMNDyyp1E5k-30">
          <mxGeometry relative="1" as="geometry" />
        </mxCell>
        <mxCell id="wZyBaui_SmMNDyyp1E5k-33" value="n = fibonacciRecursive(n-1)&lt;br&gt;+fibonacciRecursive(n-2)" style="shape=process;whiteSpace=wrap;html=1;backgroundOutline=1;fillColor=#FF99CC;" vertex="1" parent="WIyWlLk6GJQsqaUBKTNV-1">
          <mxGeometry x="440" y="375" width="170" height="60" as="geometry" />
        </mxCell>
      </root>
    </mxGraphModel>
  </diagram>
</mxfile>
